<svg width="1343" height="737" viewBox="0 0 1343 737" fill="none" xmlns="http://www.w3.org/2000/svg">
<path d="M1049.6 1.04091L948.498 736.03M787.603 1.04091L686.498 736.03M525.603 1.04091L424.498 736.03M918.603 1.04091L817.498 736.03M656.603 1.04091L555.498 736.03M394.603 1.04091L293.498 736.03M132.603 1.04091L31.4983 736.03M263.603 1.04091L162.498 736.03M1180.6 1.04091L1079.5 736.03M1311.6 1.04091L1210.5 736.03M1343 44.5L102 44.5001M1261 729.5L0 729.5M1286 503.5L25 503.5M1333 274.5L72 274.5M1261 616.5L0 616.5M1311 387.5L50 387.5M1333 159.5L72 159.5" stroke="url(#paint0_linear_10_155)"/>
<defs>
<linearGradient id="paint0_linear_10_155" x1="1142" y1="84.5001" x2="503.5" y2="698.5" gradientUnits="userSpaceOnUse">
<stop stop-color="#67676C"/>
<stop offset="1" stop-color="#5F5F5F" stop-opacity="0"/>
</linearGradient>
</defs>
</svg>
