<svg width="169" height="151" viewBox="0 0 169 151" fill="none" xmlns="http://www.w3.org/2000/svg">
<path d="M75.0874 0L150.175 75.0873L75.0874 150.175L0 75.0873L75.0874 0Z" fill="#444444"/>
<path d="M93.6403 0.115367L168.728 75.2027L93.6403 150.29L18.5528 75.2027L93.6403 0.115367Z" fill="#B1B1B1"/>
<path d="M60.9286 59.9316H68.9834L77.4906 80.6869H77.8526L86.3598 59.9316H94.4146V90.8231H88.0794V70.7165H87.823L79.8286 90.6723H75.5146L67.5202 70.6411H67.2638V90.8231H60.9286V59.9316Z" fill="url(#paint0_linear_19_232)"/>
<path d="M127.052 70.7467H120.445C120.325 69.8919 120.078 69.1327 119.706 68.469C119.334 67.7953 118.857 67.2221 118.273 66.7495C117.69 66.2769 117.016 65.9149 116.252 65.6635C115.498 65.4121 114.678 65.2864 113.793 65.2864C112.195 65.2864 110.802 65.6836 109.615 66.478C108.429 67.2623 107.509 68.4087 106.855 69.9171C106.201 71.4154 105.874 73.2355 105.874 75.3774C105.874 77.5796 106.201 79.4299 106.855 80.9282C107.519 82.4265 108.444 83.5578 109.63 84.322C110.817 85.0863 112.189 85.4684 113.748 85.4684C114.623 85.4684 115.433 85.3528 116.177 85.1215C116.931 84.8902 117.6 84.5533 118.183 84.1109C118.766 83.6584 119.249 83.1103 119.631 82.4667C120.023 81.8232 120.295 81.0891 120.445 80.2645L127.052 80.2947C126.881 81.7125 126.454 83.0801 125.77 84.3975C125.096 85.7047 124.186 86.8762 123.04 87.912C121.903 88.9377 120.546 89.7522 118.967 90.3555C117.398 90.9488 115.624 91.2455 113.643 91.2455C110.887 91.2455 108.424 90.622 106.252 89.3751C104.09 88.1282 102.38 86.3232 101.123 83.96C99.8761 81.5969 99.2527 78.736 99.2527 75.3774C99.2527 72.0087 99.8862 69.1428 101.153 66.7797C102.42 64.4165 104.14 62.6165 106.312 61.3797C108.484 60.1328 110.927 59.5093 113.643 59.5093C115.433 59.5093 117.092 59.7607 118.62 60.2635C120.159 60.7663 121.521 61.5003 122.708 62.4657C123.895 63.421 124.86 64.5925 125.604 65.9802C126.358 67.3679 126.841 68.9567 127.052 70.7467Z" fill="url(#paint1_linear_19_232)"/>
<defs>
<linearGradient id="paint0_linear_19_232" x1="93.9942" y1="49.7632" x2="93.9942" y2="101.442" gradientUnits="userSpaceOnUse">
<stop stop-color="#0A0708"/>
<stop offset="1" stop-color="#B1B1B1"/>
</linearGradient>
<linearGradient id="paint1_linear_19_232" x1="93.9942" y1="49.7632" x2="93.9942" y2="101.442" gradientUnits="userSpaceOnUse">
<stop stop-color="#0A0708"/>
<stop offset="1" stop-color="#B1B1B1"/>
</linearGradient>
</defs>
</svg>
